<svg width="212" height="38" viewBox="0 0 212 38" fill="none" xmlns="http://www.w3.org/2000/svg">
<path d="M141.821 0.196777H134.983V13.0976C133.996 3.4485 130.435 0.196777 125.218 0.196777C121.305 0.196777 118.379 2.14074 116.582 7.23039C115.277 2.17609 111.541 0.196777 105.337 0.196777H98.498V13.0976H98.3217C97.3347 3.4485 93.7743 0.196777 88.5572 0.196777C83.5163 0.196777 79.9207 3.4485 78.7927 13.0976H78.6164V0.196777H69.8037L66.5606 19.4597H66.3844L63.5995 0.196777H54.4696V7.5485C53.6588 3.1304 51.0502 0.196777 46.1503 0.196777C40.7569 0.196777 37.8311 3.94333 37.3376 8.67953C35.8571 2.31747 32.614 0.196777 28.3839 0.196777C23.6602 0.196777 20.2409 2.98902 18.9366 10.9769C18.6194 5.25108 16.9978 0.196777 10.1239 0.196777C4.73049 0.196777 0.359375 5.10971 0.359375 19.0002C0.359375 30.9114 2.79169 37.8036 10.1239 37.8036C16.6453 37.8036 18.4431 32.5726 18.9366 27.3416C20.2409 35.1881 23.6602 37.8036 28.3839 37.8036C32.9312 37.8036 36.2096 35.1881 37.6549 27.8364C37.9721 32.5726 39.7699 37.8036 46.4676 37.8036C50.2042 37.8036 52.989 36.1778 54.4696 33.3856V37.6269H59.5104V10.164H59.6867L64.2341 37.6269H67.9707L72.518 10.164H72.6943V37.6269H78.7222V24.7261H78.8984C79.8855 34.3752 83.4458 37.6269 88.663 37.6269C93.7038 37.6269 97.2994 34.3752 98.4275 24.7261H98.6037V37.6269H105.442V22.6054H108.227C111.647 22.6054 113.938 21.2976 115.383 19.1769C115.383 33.2442 119.296 37.6269 125.324 37.6269C130.365 37.6269 133.96 34.3752 135.088 24.7261V37.6269H150.564V31.9011H141.927V0.196777H141.821ZM13.4375 23.4183C13.2612 28.6493 12.803 31.9011 10.5116 31.9011C8.39659 31.9011 7.72682 30.5933 7.72682 18.6821C7.72682 6.59419 9.20736 5.78126 10.6526 5.78126C12.2742 5.78126 13.085 8.07867 13.085 13.9459L18.7956 13.7692C18.6194 15.395 18.6194 17.0209 18.6194 19.0002C18.6194 20.8028 18.6194 22.4287 18.7956 23.9131L13.4375 23.4183ZM31.0277 22.7468C31.0277 30.5933 30.0407 32.0424 28.5954 32.0424C26.9738 32.0424 26.1631 30.4166 26.1631 22.7468V15.0769C26.1631 7.23039 27.1501 5.78126 28.5954 5.78126C30.2169 5.78126 31.0277 7.40712 31.0277 15.0769V22.7468ZM46.8201 32.0778C43.8943 32.0778 43.8943 28.4726 43.8943 26.5287H38.0426C38.3599 24.408 38.5361 21.7925 38.5361 18.8588C38.5361 17.3744 38.5361 15.9252 38.3599 14.6175C41.2857 21.333 49.7812 23.2769 49.7812 28.6847C49.7812 29.9218 49.1114 32.0778 46.8201 32.0778ZM43.577 9.03298C43.577 7.08901 44.564 5.78126 46.1856 5.78126C48.9704 5.78126 48.9704 9.2097 48.9704 11.189H54.6811V22.1459C51.4027 16.208 43.577 13.9106 43.577 9.03298ZM91.1658 22.7468C91.1658 30.5933 90.1787 32.2192 88.7335 32.2192C87.1119 32.2192 86.3011 30.5933 86.3011 22.7468V15.0769C86.3011 7.23039 87.2882 5.60453 88.7335 5.60453C90.355 5.60453 91.1658 7.23039 91.1658 15.0769V22.7468ZM105.971 17.1976H105.337V5.92264H105.83C108.121 5.92264 110.237 6.09936 110.237 11.4718C110.237 16.0666 108.756 17.1976 105.971 17.1976ZM127.65 22.7468C127.65 30.5933 126.663 32.2192 125.218 32.2192C123.597 32.2192 122.786 30.5933 122.786 22.7468V15.0769C122.786 7.23039 123.773 5.60453 125.218 5.60453C126.84 5.60453 127.65 7.23039 127.65 15.0769V22.7468ZM151.621 0.196777H158.46V37.6269H151.621V0.196777ZM178.024 0.196777H159.447V5.92264H165.298V37.6269H172.137V5.92264H177.989V0.196777M206.19 0.196777V19.9545H206.013L199.809 0.196777H193.111V32.8907L189.022 0.232122H179.082L173.864 37.6623H179.575L180.562 29.3209H186.167L187.154 37.6623H199.034V14.9356H199.21L206.542 37.6623H211.9V0.196777H206.19ZM181.443 23.8778L183.558 5.92264H183.735L185.674 23.8778H181.443Z" fill="#797876"/>
</svg>
