<svg width="98" height="68" viewBox="0 0 98 68" fill="none" xmlns="http://www.w3.org/2000/svg">
<path fill-rule="evenodd" clip-rule="evenodd" d="M46.428 23.2078C46.428 22.0715 45.7775 21.584 44.3115 21.584H42.0332V24.8317H44.3115C45.7742 24.8317 46.428 24.5056 46.428 23.2078Z" fill="#797876"/>
<path fill-rule="evenodd" clip-rule="evenodd" d="M60.0928 48.0398H62.8596L61.397 43.333L60.0928 48.0398Z" fill="#797876"/>
<path fill-rule="evenodd" clip-rule="evenodd" d="M73.9241 42.8456H71.8076V46.09H73.9241C75.225 46.09 75.8755 45.6025 75.8755 44.4661C75.8755 43.3298 75.225 42.8423 73.9241 42.8423V42.8456Z" fill="#797876"/>
<path fill-rule="evenodd" clip-rule="evenodd" d="M82.2178 26.7783H85.3118L83.8457 22.2329L82.2178 26.7783Z" fill="#797876"/>
<path fill-rule="evenodd" clip-rule="evenodd" d="M0.387695 0V68H98.0002V0H0.387695ZM29.3473 19.6375H31.949L36.0167 31.1591H33.5768L32.7646 28.5636H28.535L27.7228 31.1591H25.2829L29.3506 19.6375H29.3473ZM13.5649 52.5852C11.1249 52.5852 9.98583 51.6102 9.3354 49.9897L11.1249 49.1795C11.6136 50.1545 12.264 50.8033 13.5649 50.8033C15.0309 50.8033 15.5162 50.3158 15.5162 49.3442C15.5162 48.3726 14.8658 48.0465 13.3998 47.559C11.1216 46.9101 9.65893 46.2612 9.65893 43.9885C9.65893 41.8806 11.2867 40.7408 13.5615 40.7408C15.678 40.7408 16.8171 41.7158 17.4675 42.8522L15.678 43.8272C15.1893 43.0169 14.5389 42.5294 13.5615 42.5294C12.2607 42.5294 11.772 43.1783 11.772 43.8272C11.772 44.6374 12.2607 44.9635 13.7233 45.451C16.652 46.2613 17.7911 47.2362 17.7911 49.1828C17.7911 51.1294 16.3284 52.5919 13.5615 52.5919L13.5649 52.5852ZM16.8205 31.1591H15.0309L12.264 23.0432V31.1591H9.98583V19.6375H13.2414L15.8431 27.9148H16.0049L18.6066 19.6375H21.8588V31.1591H19.5806V23.0432L16.8137 31.1591H16.8205ZM28.6968 43.0068H25.6064V52.4205H23.3282V43.0068H20.2378V40.8955H28.6968V43.0068ZM39.2689 52.4205H31.7839V40.8988H39.1038V42.8455H33.8969V45.4409H37.3142V47.3875H33.8969V50.4705H39.2656V52.4171L39.2689 52.4205ZM42.0358 31.1591H39.5958V19.6375H44.314C47.7313 19.6375 48.8704 21.2613 48.8704 23.208C48.8704 24.8318 47.8931 25.8034 46.4305 26.2909L48.7087 31.1591H46.2687L44.1522 26.7784H42.0358V31.1591ZM52.4495 52.4205H50.8217L48.7053 44.3046H48.5435L46.4271 52.4205H44.9645L42.1976 40.8988H44.314L45.7766 48.2011L47.728 40.8988H49.6793L51.4688 48.2011L52.9314 40.8988H55.0479L52.4461 52.4205H52.4495ZM52.1226 21.7488V19.6375H61.3972V21.7488H57.9799V31.1625H55.5399V21.7488H52.1226ZM64.1607 52.4205L63.3485 49.825H59.4425L58.7921 52.4205H56.5139L60.093 40.8988H62.6947L66.2738 52.4205H64.1574H64.1607ZM67.9016 31.1591H65.4616V19.6375H67.9016V24.1829H72.458V19.6375H74.898V31.1591H72.458V26.2909H67.9016V31.1591ZM77.9884 52.4205H75.5484L73.7589 47.875H71.8076V52.4205H69.6911V40.8988H73.9206C77.011 40.8988 77.9884 42.5227 77.9884 44.4693C77.9884 46.0932 77.1762 47.0648 75.8719 47.5523L77.9884 52.4205ZM89.2143 43.0068H86.1239V52.4205H83.8457V43.0068H80.7553V40.8955H89.2143V43.0068ZM86.7743 31.1591L85.9621 28.5636H81.7326L80.9204 31.1591H78.4804L82.5482 19.6375H85.1499L89.2177 31.1591H86.7777H86.7743Z" fill="#797876"/>
<path fill-rule="evenodd" clip-rule="evenodd" d="M30.6476 22.2329L29.1816 26.7783H32.2754L30.6476 22.2329Z" fill="#797876"/>
</svg>
