<svg width="147" height="54" viewBox="0 0 147 54" fill="none" xmlns="http://www.w3.org/2000/svg">
<path opacity="0.999" fill-rule="evenodd" clip-rule="evenodd" d="M1.82907 0.200839C7.76977 0.12879 13.7085 0.200882 19.6459 0.417072C20.044 0.578901 20.4064 0.795134 20.7323 1.06577C21.0221 3.51643 21.0221 5.96704 20.7323 8.4177C19.4495 9.64167 17.9285 10.5066 16.1694 11.0125C15.0574 12.073 14.4056 13.3704 14.2139 14.9047C14.0692 27.3021 13.9241 39.6993 13.7794 52.0968C12.5153 53.3484 10.9943 53.7086 9.21654 53.178C8.61111 52.6716 8.249 52.0229 8.13014 51.2319C7.98531 39.1228 7.84043 27.0138 7.69559 14.9047C7.66999 13.4679 7.16299 12.2426 6.17464 11.2287C4.33186 10.4916 2.52123 9.69875 0.74268 8.85017C0.452961 6.39951 0.452961 3.9489 0.74268 1.49824C1.04596 0.983344 1.40812 0.550877 1.82907 0.200839Z" fill="#797876"/>
<path opacity="0.999" fill-rule="evenodd" clip-rule="evenodd" d="M94.8248 1.93105C98.5376 1.22081 101.507 2.37407 103.733 5.39078C106.553 10.3319 108.001 15.6657 108.079 21.392C108.846 29.7484 108.121 37.9654 105.906 46.0426C104.437 50.2492 101.54 52.7 97.2148 53.3945C92.5281 52.6031 89.6314 49.8643 88.5237 45.1777C85.6965 34.1454 85.4066 23.0454 87.6546 11.8778C88.7827 7.59731 91.1728 4.28176 94.8248 1.93105ZM96.9976 14.0401C95.6083 22.0698 95.391 30.1426 96.3457 38.2582C97.1344 41.6834 97.8589 41.6834 98.5185 38.2582C98.9235 30.3106 98.7788 22.382 98.084 14.4726C97.7924 14.1472 97.4304 14.003 96.9976 14.0401Z" fill="#797876"/>
<path opacity="0.999" fill-rule="evenodd" clip-rule="evenodd" d="M137.411 3.2284C139.283 2.89769 140.515 3.61844 141.105 5.39073C141.25 8.85046 141.395 12.3102 141.539 15.7699C142.903 16.0203 144.207 16.4527 145.45 17.0673C146.532 20.6022 145.228 22.4762 141.539 22.6894C141.16 29.911 141.305 37.1186 141.974 44.3127C142.281 44.9964 142.643 45.6451 143.06 46.2588C145.14 46.709 146.444 47.9342 146.971 49.9348C146.817 51.3135 146.092 52.2506 144.799 52.7458C141.576 53.5044 139.042 52.5676 137.194 49.9348C136.554 48.1085 136.12 46.2342 135.89 44.3127C135.745 37.3932 135.6 30.4738 135.456 23.5543C134.799 22.6088 133.929 21.888 132.848 21.392C132.493 19.8938 132.638 18.4523 133.283 17.0673C134.183 16.6937 134.907 16.1171 135.456 15.3375C135.6 11.8777 135.745 8.418 135.89 4.95827C136.19 4.15812 136.697 3.58147 137.411 3.2284Z" fill="#797876"/>
<path opacity="0.999" fill-rule="evenodd" clip-rule="evenodd" d="M69.185 15.7696C72.1534 15.1432 74.5435 16.0081 76.3552 18.3644C79.3023 23.6609 80.1714 29.283 78.9625 35.2306C78.7452 35.4468 78.5279 35.6631 78.3107 35.8793C75.7033 36.1678 73.096 36.4558 70.4886 36.7442C69.6921 36.9605 69.185 37.4652 68.9677 38.2579C68.6778 40.2762 68.6778 42.2941 68.9677 44.3124C69.6721 46.0384 70.9032 46.8311 72.6614 46.691C74.042 45.8909 75.4178 45.0982 76.7897 44.3124C77.508 44.4508 77.9426 44.8833 78.0934 45.6098C78.501 50.4686 76.2556 53.2074 71.3577 53.8267C68.6626 53.5304 66.562 52.233 65.0567 49.9345C59.809 39.0022 60.2435 28.3348 66.3603 17.932C67.3711 17.2548 68.3124 16.5341 69.185 15.7696Z" fill="#797876"/>
<path fill-rule="evenodd" clip-rule="evenodd" d="M113.511 15.77C115.545 15.3187 116.921 16.0395 117.639 17.9323C117.784 25.4284 117.929 32.9245 118.074 40.4206C118.296 41.449 118.586 42.4583 118.943 43.4478C120.857 44.8542 122.161 44.4217 122.854 42.1504C122.998 33.9336 123.144 25.7167 123.288 17.4999C125.107 15.2344 126.845 15.2344 128.503 17.4999C128.986 28.597 129.13 39.6971 128.938 50.7998C128.364 52.3921 127.278 53.0408 125.678 52.7459C124.587 51.9467 123.501 51.154 122.419 50.3673C116.148 54.5994 112.672 52.8695 111.99 45.1777C111.7 35.8074 111.7 26.4375 111.99 17.0674C112.487 16.5759 112.995 16.1435 113.511 15.77Z" fill="#797876"/>
<path opacity="0.999" fill-rule="evenodd" clip-rule="evenodd" d="M20.9493 16.2023C22.5949 15.9058 23.9712 16.3382 25.0776 17.4997C25.3674 29.0321 25.3674 40.5644 25.0776 52.097C23.9655 53.3291 22.5893 53.6897 20.9493 53.1781C20.4274 52.7876 20.065 52.2834 19.8629 51.6645C19.573 40.2764 19.573 28.8879 19.8629 17.4997C20.317 17.1219 20.679 16.6895 20.9493 16.2023Z" fill="#797876"/>
<path fill-rule="evenodd" clip-rule="evenodd" d="M32.248 16.2022C32.9863 16.1329 33.7107 16.205 34.4208 16.4185C35.3216 17.4779 36.408 18.2707 37.6799 18.797C38.6168 18.1548 39.5585 17.5061 40.5046 16.8509C41.6244 16.3102 42.7829 16.166 43.981 16.4185C45.2634 17.6103 46.4949 18.8356 47.6748 20.0944C49.4582 19.0421 51.1238 17.8168 52.6722 16.4185C55.4816 15.9782 57.4371 17.0594 58.5387 19.662C58.9385 20.7869 59.2283 21.9401 59.4078 23.1217C59.6976 32.4918 59.6976 41.8618 59.4078 51.232C57.5631 54.0686 55.6802 54.0686 53.7586 51.232C53.6138 44.3125 53.4687 37.3931 53.324 30.4736C53.0898 29.1639 52.7999 27.8665 52.4549 26.5814C51.8156 24.8317 50.7293 24.4713 49.1957 25.5003C48.8954 25.9619 48.6781 26.4664 48.5439 27.0139C48.1449 35.5451 47.7104 44.0505 47.2402 52.5294C45.6467 53.6828 44.0536 53.6828 42.4601 52.5294C41.9212 44.3268 41.6318 36.1099 41.591 27.8788C40.0491 23.9173 38.4556 23.9173 36.8108 27.8788C36.6661 35.8072 36.521 43.7361 36.3763 51.6645C34.9952 53.771 33.4017 53.915 31.5961 52.0969C30.9135 40.5747 30.7687 29.0425 31.1616 17.4996C31.6157 17.1219 31.9777 16.6894 32.248 16.2022Z" fill="#797876"/>
</svg>
