<svg width="176" height="56" viewBox="0 0 176 56" fill="none" xmlns="http://www.w3.org/2000/svg">
<g clip-path="url(#clip0_5380_3726)">
<path d="M83.639 1.43945C83.639 1.43945 81.6847 1.48042 80.552 1.46126C80.5051 1.93708 79.9593 6.24887 79.4898 9.71732C78.9498 12.9268 74.6715 36.735 73.2219 43.8619C72.8405 46.0139 71.6608 52.0933 71.5493 52.7008C70.1878 52.8635 68.5797 53.0139 67.5292 53.0545C67.3884 53.0592 67.1536 53.105 67.0421 53.105V54.3393C67.1712 54.334 67.852 54.3863 68.3333 54.3657C69.4894 54.3287 72.77 54.173 73.3921 54.173C75.7514 54.173 77.3242 54.3293 79.5074 54.3728C79.5367 54.3728 80.1353 54.3704 80.3994 54.337V53.0897C80.2175 53.0897 79.9769 53.0838 79.836 53.0838C79.2198 53.1032 76.9486 52.9287 75.7983 52.7719C75.9333 51.9564 77.9404 39.6261 78.9029 34.6952C80.7339 25.5685 82.0016 19.1002 82.0016 19.1002L82.342 19.9033L96.8085 54.4198L99.4494 54.4333C99.4494 54.4333 100.958 50.6957 102.748 46.5033C102.795 46.404 102.924 46.1038 103.106 45.6749C104.984 41.3216 114.292 19.2277 114.292 19.2277C114.292 19.2277 114.38 19.6254 114.526 20.3369C115.412 24.6673 118.411 40.2735 119.051 44.0388C119.35 45.9757 119.632 47.9403 119.796 49.0912C120.037 50.7209 120.195 52.316 120.195 52.7742C119.902 52.7877 116.956 53.0545 115.841 53.1026C115.682 53.0973 115.383 53.112 115.365 53.115V54.3704C115.765 54.3704 116.152 54.3881 116.539 54.3793C118.816 54.3358 121.005 54.1572 123.282 54.1584C125.841 54.1607 129.99 54.3845 132.649 54.4016C132.948 54.4016 133.482 54.3751 133.482 54.3751V53.1067C133.33 53.1056 132.661 53.0727 132.414 53.0533C131.223 52.9599 129.216 52.7736 128.705 52.7396C128.705 52.7396 128.377 50.9166 127.942 48.811C126.205 40.3881 121.258 14.7856 120.501 8.48593C120.242 6.32066 119.509 1.45891 119.509 1.45891L116.533 1.45798C116.533 1.45798 115.013 5.82383 113.628 9.80451C112.683 12.5246 111.398 15.8827 110.418 18.4577C105.582 31.1805 100.16 43.0362 100.16 43.0362C100.16 43.0362 88.6333 15.505 88.0229 13.9129C87.4067 12.3202 83.639 1.43945 83.639 1.43945ZM0.783828 1.45093L0.809063 4.36085L0.759766 11.4472L1.52664 11.4255L1.60686 5.12283C1.60686 5.12265 5.81189 5.0864 6.35575 5.08711L14.197 5.09052L19.2576 5.11578L19.2658 48.947L19.267 52.7328L19.1602 52.7475C18.4865 52.7998 15.8942 52.9584 14.8414 52.9966C14.6055 53.0042 14.4546 53.0101 14.4288 53.0072L14.4335 54.2897C14.6237 54.2991 15.136 54.3114 15.2035 54.3091C17.6942 54.2767 21.0646 54.06 23.4544 54.0623C25.8823 54.0635 29.2991 54.2997 31.4136 54.3243C31.6231 54.3255 31.8714 54.3049 32.0727 54.3049V53.1023L31.8103 53.1047C31.1366 53.1018 27.4105 52.8615 27.0249 52.8109C27.0091 52.2229 26.9398 49.3841 26.9398 49.3212L26.958 5.11108L30.8109 5.10086L40.8635 5.10773L44.2186 5.15361C44.2409 5.3936 44.4105 8.58611 44.4076 8.67306C44.4 8.90512 44.5332 11.2833 44.5279 11.8684L45.3231 11.8778L45.2662 4.71041L45.3026 1.48635C42.3483 1.56684 34.8192 1.66812 23.1345 1.66196C13.1136 1.65579 3.45646 1.57177 0.783828 1.45093ZM47.5848 1.4624L47.5972 2.71776C47.9939 2.73932 50.3261 2.94588 50.8931 2.97361C51.3455 3.02907 51.977 3.08582 52.4289 3.12965C52.4289 3.53156 52.436 6.30494 52.4424 7.39951C52.5181 17.7741 52.4536 40.7028 52.423 48.8155C52.4137 51.1614 52.4072 52.673 52.4072 52.673C52.1214 52.7588 51.4782 52.7911 50.7827 52.8381C50.1882 52.8786 48.0579 53.0578 47.5825 53.0678V54.3233C47.7797 54.3233 48.1412 54.365 48.3472 54.3632C50.7587 54.3638 54.1115 54.0642 56.5816 54.066C59.0782 54.0677 62.4117 54.3721 64.3777 54.3726L64.3718 54.3738C64.542 54.3762 64.947 54.3315 65.1172 54.3321V53.0772H64.947C64.8707 53.0608 62.3354 52.9538 61.7192 52.8898C61.3964 52.8692 59.9996 52.7482 59.982 52.7018C59.9761 52.6771 59.9703 52.3017 59.9703 51.676C59.9761 51.0821 59.9761 50.0945 59.9761 49.0241C59.982 40.8409 60.0055 16.5368 60.0114 7.24676C60.0114 5.45131 60.0172 3.99251 60.0172 3.20996C60.563 3.17542 62.7931 2.94201 63.5913 2.87151C63.6265 2.86804 64.6829 2.80718 65.1172 2.78086V1.47274C62.3882 1.47174 58.7772 1.68524 56.1139 1.68389C53.3286 1.68218 49.8971 1.46343 47.5848 1.4624ZM173.881 1.49799C173.881 1.49799 173.593 1.49922 173.059 1.50028C171.234 1.50815 166.562 1.54246 161.098 1.57254C157.741 1.59204 155.118 1.61901 151.661 1.61731C149.238 1.64574 145.845 1.73927 143.75 1.73551C140.405 1.73005 137.676 1.52366 136.191 1.51749C135.487 1.51438 135.094 1.54093 134.9 1.52895C134.912 1.54675 134.912 2.76821 134.912 2.76821C135.041 2.79077 135.299 2.81955 135.54 2.81409C136.379 2.87061 137.952 2.9978 138.75 3.10326C138.909 3.13234 139.179 3.17693 139.93 3.26047C139.924 3.53841 139.965 6.68362 139.959 8.5733C139.959 10.324 139.942 49.3866 139.942 49.3866C139.942 49.45 139.853 52.5279 139.853 52.7764C138.527 53.0038 135.98 53.1436 135.112 53.1471H134.853V54.3897C134.977 54.3891 135.546 54.4114 135.869 54.4114C137.271 54.4108 140.886 54.1876 144.578 54.1852C147.166 54.1829 150.012 54.2798 152.894 54.3209C156.444 54.3703 160.036 54.3726 163.264 54.4185C168.587 54.4937 172.9 54.5001 174.303 54.5019C174.303 54.5019 174.473 44.6185 174.473 43.8218L173.704 43.8306C173.704 44.6713 173.393 47.8021 173.382 47.939C173.282 49.1175 173.176 50.3524 173.094 50.961C173.094 50.961 172.719 50.991 172.537 50.9875C171.662 50.971 168.869 51.0727 168.81 51.0727L156.351 51.078L147.6 50.9311L147.542 48.5012L147.536 29.6356C149.097 29.5827 151.479 29.4999 152.929 29.5028C154.162 29.5052 157.067 29.4358 158.692 29.4394C162.642 29.4464 166.151 29.4717 166.433 29.4799C167.085 29.4987 168.293 29.5386 168.751 29.5668C168.769 29.7331 168.822 29.9928 168.828 30.0662C169.062 31.5109 169.191 32.5114 169.35 33.9296C169.373 34.0571 169.385 34.1804 169.403 34.2968H170.301C170.301 34.2968 170.324 33.7897 170.312 33.4743C170.295 32.3621 170.224 30.1438 170.224 27.6851C170.218 25.9808 170.318 23.3752 170.33 22.1221C170.336 21.7831 170.295 21.5422 170.295 21.4453L169.473 21.4612C169.467 21.732 169.403 22.1315 169.403 22.1315C169.332 23.0656 169.068 24.2594 168.857 25.519C168.798 25.6759 168.757 25.895 168.757 25.895C168.663 25.9267 166.087 26.0642 165.858 26.0624C165.77 26.0618 162.02 26.167 161.955 26.167L147.542 26.113L147.565 5.30977C147.565 5.30983 149.396 5.24509 149.907 5.24785C151.984 5.2482 155.365 5.22928 158.81 5.2341C163.851 5.24021 168.745 5.27164 168.757 5.27881C168.786 5.2932 170.277 5.31394 170.306 5.33961C170.342 5.3677 172.208 5.42357 172.666 5.43831C172.666 5.43831 172.701 5.59318 172.724 5.78828C172.93 7.98169 173.1 10.5866 173.176 11.5096L173.182 11.8791L173.951 11.8768C173.951 10.5261 173.881 6.38982 173.869 3.75819C173.863 2.91297 173.881 2.22466 173.881 1.83303V1.49799Z" fill="#797876"/>
</g>
<defs>
<clipPath id="clip0_5380_3726">
<rect width="174.889" height="54.2381" fill="white" transform="translate(0.144531 0.880859)"/>
</clipPath>
</defs>
</svg>
