<svg width="162" height="42" viewBox="0 0 162 42" fill="none" xmlns="http://www.w3.org/2000/svg">
<path d="M91.556 13.9976C91.556 9.30235 91.6374 4.93092 91.8814 0.883301L79.4358 3.23092V4.36425L80.656 4.52616C81.5507 4.60711 82.1202 4.93092 82.4455 5.41663C82.7709 5.9833 83.0149 6.79283 83.1776 8.00711C83.3403 10.3547 83.503 15.6976 83.4217 24.1166C83.4217 32.4547 83.3403 37.7166 83.1776 39.7404C87.6515 40.7119 91.1493 41.1166 93.7523 41.1166C98.6329 41.1166 102.456 39.7404 105.222 36.9071C107.987 34.1547 109.452 30.269 109.452 25.4928C109.452 21.6881 108.394 18.5309 106.279 16.0214C104.164 13.5119 101.48 12.2976 98.3076 12.2976C96.1926 12.2976 93.9963 12.8643 91.556 13.9976ZM91.8001 38.9309C91.6374 36.3404 91.4747 28.569 91.4747 15.8595C92.2068 15.6166 93.1829 15.4547 94.4031 15.4547C96.3553 15.4547 97.9008 16.4262 99.0396 18.45C100.178 20.4738 100.748 22.9024 100.748 25.9785C100.748 29.7833 100.097 32.8595 98.7956 35.45C97.4941 37.9595 95.8672 39.2547 93.8336 39.2547C93.1829 39.0928 92.5321 39.0119 91.8001 38.9309ZM32.7445 1.69282H0.207031V3.31187L1.91525 3.47378C3.21675 3.71663 4.11153 4.20235 4.68094 4.93092C5.25034 5.74044 5.57572 7.03568 5.65706 8.81663C6.30781 17.5595 6.30781 25.7357 5.65706 33.2643C5.49437 35.0452 5.169 36.3404 4.68094 37.15C4.11153 37.9595 3.21675 38.4452 1.91525 38.6071L0.207031 38.85V40.469H21.1937V38.85L18.9974 38.6881C18.4615 38.6434 17.9402 38.4913 17.4649 38.2409C16.9896 37.9905 16.5701 37.6469 16.2317 37.2309C15.6623 36.4214 15.337 35.1262 15.2556 33.3452C15.0116 30.1071 14.8489 26.3833 14.8489 22.2547L19.2415 22.3357C21.6004 22.4166 23.2273 24.1976 24.0407 27.7595H25.6676V14.5643H24.0407C23.2273 18.0452 21.6818 19.8262 19.2415 19.9071L14.8489 19.9881C14.8489 12.7023 15.0116 7.5214 15.2556 4.36425H21.6818C26.237 4.36425 29.3281 7.27854 31.1176 13.1071L33.0699 12.5404L32.7445 1.69282ZM28.9214 26.6262C28.9214 30.8357 30.1415 34.3166 32.5005 37.069C34.8595 39.8214 38.3572 41.1166 42.7498 41.1166C47.1424 41.1166 50.7215 39.7404 53.3245 36.9071C55.9275 34.1547 57.1476 30.6738 57.1476 26.4643C57.1476 22.2547 55.9275 18.7738 53.5685 16.0214C51.2095 13.269 47.7118 11.9738 43.3192 11.9738C38.9266 11.9738 35.3475 13.35 32.7445 16.1833C30.1415 18.9357 28.9214 22.4166 28.9214 26.6262ZM47.061 17.3976C48.0371 19.7452 48.4439 22.8214 48.4439 26.5452C48.4439 35.1262 46.6543 39.3357 43.1565 39.3357C41.367 39.3357 39.9841 38.1214 39.008 35.6928C38.0319 33.2643 37.6251 30.1881 37.6251 26.5452C37.6251 18.0452 39.4147 13.8357 42.9125 13.8357C44.702 13.7547 46.0849 14.969 47.061 17.3976ZM115.796 37.069C118.481 39.7404 121.897 41.1166 125.964 41.1166C128.486 41.1166 130.682 40.6309 132.635 39.5785C134.587 38.6071 136.132 37.3928 137.19 35.9357L136.376 34.9643C134.587 36.3404 132.553 36.9881 130.194 36.9881C126.941 36.9881 124.419 35.9357 122.711 33.75C120.921 31.5643 120.108 28.8119 120.27 25.25H137.678C137.678 21.3643 136.702 18.2071 134.668 15.6976C132.635 13.269 129.788 12.0547 126.127 12.0547C121.572 12.0547 118.074 13.5119 115.552 16.3452C113.031 19.1785 111.811 22.6595 111.811 26.7881C111.811 30.9976 113.112 34.3976 115.796 37.069ZM121.816 16.75C122.711 14.8071 123.849 13.8357 125.395 13.8357C127.835 13.8357 129.055 16.9119 129.055 23.1452L120.433 23.3071C120.514 20.8785 120.921 18.6928 121.816 16.75ZM159.559 13.5119C157.363 12.5404 154.597 11.9738 151.262 11.9738C147.846 11.9738 145.162 12.8643 143.128 14.5643C141.094 16.2643 140.037 18.369 140.037 20.8785C140.037 23.0643 140.688 24.7643 141.908 25.9785C143.128 27.1928 145.08 28.2452 147.602 29.1357C149.879 29.9452 151.506 30.7547 152.32 31.4833C153.133 32.2928 153.621 33.1833 153.621 34.3976C153.621 35.5309 153.215 36.5833 152.32 37.3928C151.506 38.2833 150.368 38.6881 148.903 38.6881C145.324 38.6881 142.64 36.0976 140.769 30.9166L139.386 31.3214L139.712 39.4166C142.64 40.55 145.894 41.1166 149.473 41.1166C153.215 41.1166 156.062 40.3071 158.177 38.6071C160.291 36.9881 161.349 34.6404 161.349 31.7262C161.349 29.7833 160.861 28.1643 159.803 26.95C158.746 25.7357 157.038 24.6833 154.597 23.7119C151.913 22.7404 150.042 21.85 149.066 21.0404C148.09 20.2309 147.602 19.2595 147.602 18.0452C147.602 16.8309 147.927 15.8595 148.659 15.05C149.391 14.2404 150.286 13.9166 151.425 13.9166C154.679 13.9166 157.038 16.2643 158.502 20.8785L159.885 20.4738L159.559 13.5119ZM81.3067 12.7833C80.1679 12.2166 78.9477 11.9738 77.5649 11.9738C76.1821 11.9738 74.7992 12.5404 73.2537 13.6738C71.7082 14.8071 70.5693 16.3452 69.6746 18.45L69.7559 11.9738L57.3917 14.4024V15.5357L58.6118 15.6166C60.1574 15.7785 61.0521 16.9928 61.2148 19.1785C61.7029 24.1976 61.7029 29.5404 61.2148 35.2071C61.0521 37.3928 60.1574 38.5262 58.6118 38.769L57.3917 38.9309V40.469H74.6365V38.9309L72.4403 38.769C70.8947 38.6071 69.9999 37.3928 69.8373 35.2071C69.3492 30.5119 69.2678 25.4928 69.6746 20.3119C70.1626 19.5024 71.2201 19.0166 72.847 18.8547C74.4738 18.6928 76.3447 19.1785 78.297 20.3119L81.3067 12.7833Z" fill="#797876"/>
</svg>
