<svg width="99" height="50" viewBox="0 0 99 50" fill="none" xmlns="http://www.w3.org/2000/svg">
<g clip-path="url(#clip0_5380_3744)">
<path fill-rule="evenodd" clip-rule="evenodd" d="M26.6112 49.6905C12.2029 49.6905 0.522461 38.5808 0.522461 24.8766C0.522461 11.1724 12.2019 0.30957 26.6112 0.30957C32.5472 0.30957 38.161 1.94902 42.711 5.12421V1.54409H56.7323V20.3089L67.6593 8.70433H84.2434L70.0139 22.2841L84.4929 41.6256C84.7031 37.7265 87.9093 34.6293 91.8336 34.6293C95.7579 34.6293 98.9484 37.9458 98.9484 42.0365C98.9484 46.1272 95.8934 49.6905 91.8336 49.6905H74.9941L61.2381 31.1727L56.7323 36.2342V49.6905H42.7385V44.6092C38.0029 47.9148 32.3773 49.6876 26.6122 49.6905H26.6112ZM98.4042 8.70433H84.2434L86.4968 31.1727H96.695L98.4042 8.70433ZM98.4494 8.11176L98.9484 1.54409H74.4008L68.2173 8.11176H98.4494ZM26.848 38.5798C34.0521 38.5798 39.5363 32.4447 39.5363 24.8766C39.5363 17.3085 34.0531 11.4203 26.848 11.4203C19.6428 11.4203 14.1597 17.3085 14.1597 24.8766C14.1597 32.4447 19.6438 38.5798 26.848 38.5798ZM80.6256 2.97614V5.1489C80.6256 5.53111 80.3309 5.79086 79.9675 5.79086H78.9321C78.5687 5.79086 78.274 5.53111 78.274 5.1489V2.97614H77.2397V5.54395C77.2397 6.19874 77.7446 6.72909 78.3683 6.72909H80.5313C81.1551 6.72909 81.66 6.19874 81.66 5.54395V2.97614H80.6256ZM87.7502 5.84024V5.34643C87.7512 4.85657 87.3573 4.45856 86.8701 4.45757C86.8691 4.45757 86.8671 4.45757 86.8661 4.45757H84.8033C84.5862 4.45757 84.4104 4.28079 84.4104 4.06252C84.4104 3.84426 84.5862 3.66747 84.8033 3.66747H86.2768C86.4939 3.66747 86.6697 3.84426 86.6697 4.06252C86.6697 4.0961 86.6658 4.12869 86.6569 4.16128H87.652V3.865C87.652 3.68328 87.598 3.51439 87.5046 3.37316C87.3465 3.13416 87.1736 2.97614 86.8661 2.97614H84.2139C83.7257 2.97614 83.3299 3.37415 83.3299 3.865V4.26005C83.3289 4.74991 83.7228 5.14792 84.21 5.1489C84.211 5.1489 84.213 5.1489 84.2139 5.1489H86.2768C86.4939 5.1489 86.6697 5.32569 86.6697 5.54395C86.6697 5.76221 86.4939 5.939 86.2768 5.939H84.8033C84.5872 5.939 84.3613 5.76123 84.3613 5.54395V5.44519H83.3299V5.84024C83.3299 6.33108 83.7257 6.72909 84.2139 6.72909H86.8661C87.3543 6.72909 87.7502 6.33108 87.7502 5.84024ZM90.9918 2.97614H92.3179L94.2334 6.53157V6.72909H93.0546L92.7599 5.98838H90.5006L90.1568 6.72909H89.0272L89.0763 6.53157L90.9918 2.97614ZM92.3179 5.24767H90.9918L91.6303 3.81562L92.3179 5.24767ZM95.7628 4.35486L95.5594 3.865L95.3561 4.35486L94.8591 4.41115L95.2304 4.76966L95.1263 5.29408L95.5594 5.02644L95.9917 5.29408L95.8885 4.77065L96.2598 4.41115L95.7628 4.35486ZM75.226 3.865L75.4293 4.35486L75.9263 4.41115L75.555 4.76966L75.6591 5.29408L75.226 5.02644L74.7937 5.29408L74.8969 4.77065L74.5256 4.41115L75.0226 4.35486L75.226 3.865Z" fill="#797876"/>
</g>
<defs>
<clipPath id="clip0_5380_3744">
<rect width="98.4259" height="49.381" fill="white" transform="translate(0.522461 0.30957)"/>
</clipPath>
</defs>
</svg>
