<svg width="248" height="52" viewBox="0 0 248 52" fill="none" xmlns="http://www.w3.org/2000/svg">
<path d="M84.6713 8.86032H86.8756V15.2533H89.6316L92.1673 5.11284V1.03529H84.6713V8.86032ZM51.16 17.5679C52.8135 17.5679 53.5847 18.8906 53.5847 29.2518H48.1836C48.404 18.8906 49.2858 17.5679 51.16 17.5679ZM61.1913 38.3999H57.6636V39.6125C57.6636 44.6827 56.2301 47.1075 53.2537 47.1075C49.8367 47.1075 48.1832 44.9026 48.1832 33.3293V32.448H61.6316C61.6316 18.8906 58.6552 13.6001 51.1596 13.6001C43.6636 13.6001 38.813 21.3153 38.813 33.22C38.813 45.0132 43.4428 51.4057 51.38 51.4057C58.2145 51.4057 61.1909 47.5481 61.1909 39.3922L61.1913 38.3999ZM154.807 17.5679C156.461 17.5679 157.232 18.8906 157.232 29.2518H152.135C152.355 18.8906 152.933 17.5679 154.807 17.5679ZM164.838 38.3999H161.311V39.6125C161.311 44.6827 159.878 47.1075 156.901 47.1075C153.484 47.1075 152.134 44.9026 152.134 33.3293V32.448H165.279C165.279 18.8906 162.303 13.6001 154.807 13.6001C147.311 13.6001 142.461 21.3153 142.461 33.2196C142.461 45.0132 147.091 51.4057 155.028 51.4057C161.862 51.4057 164.838 47.5481 164.838 39.3922V38.3999ZM213.562 51.4057C218.523 51.4057 220.617 48.3196 220.617 43.9104V38.3999H217.31V43.9104C217.31 46.2258 216.98 46.9965 215.877 46.9965C214.885 46.9965 214.554 46.3351 214.554 44.2409V17.7882H220.617V14.3716H214.665V4.12099H211.247L206.176 14.8122H203.2V17.678H205.845V42.1466C205.846 48.54 206.948 51.4057 213.562 51.4057ZM187.988 23.4096C187.988 16.576 184.901 13.7106 178.287 13.7106C171.673 13.7106 167.153 18.45 167.153 24.0714V26.2758H174.76V21.095C174.76 18.1191 175.421 17.0171 177.075 17.0171C178.729 17.0171 179.39 18.0089 179.39 21.095V27.1575C169.359 30.5737 166.272 33.1094 166.272 41.5962C166.272 48.2095 168.917 51.4057 173.437 51.4057C177.296 51.4057 179.06 48.7603 180.052 47.1075V50.7444H189.863V47.768H187.988V23.4096H187.988ZM245.42 47.768V21.6458C245.42 16.2451 242.995 13.7102 238.696 13.7102C233.514 13.7102 231.42 17.5679 231.42 17.5679V0.594238L220.507 1.80681V4.6722H223.042V47.768H221.278V50.7444H233.405V47.768H231.641V24.9527C231.641 20.9849 232.743 19.3316 234.727 19.3316C236.16 19.3316 236.711 20.2133 236.711 22.4178V47.768H234.727V50.7444H247.845V47.768H245.42ZM179.389 30.2432V41.4856C179.389 44.7925 178.728 46.1156 176.854 46.1156C175.421 46.1156 174.76 44.9026 174.76 40.9352C174.76 34.2114 175.311 32.5582 179.389 30.2432ZM140.781 47.768V4.01124H143.316V1.14504H128.214V4.01083H131.3V24.5116H121.6V4.01124H124.797V1.14504H109.474V4.01083H112.12V47.7676H109.474V50.744H124.797V47.7676H121.6V27.929H131.3V47.768H128.214V50.7444H143.316V47.768H140.781ZM201.436 47.768V0.594238L190.082 1.80681V4.6722H192.838V47.768H191.074V50.7444H204.082V47.768H201.436ZM108.923 40.9348C108.923 29.2518 96.3564 28.4798 96.3564 20.7641C96.3564 18.1191 97.6789 16.7963 99.7734 16.7963C102.97 16.7963 104.624 19.9926 104.844 26.7156H107.71V15.6939C107.71 15.6939 104.513 13.7102 99.6629 13.7102C93.8207 13.7102 89.0803 17.0166 89.0803 23.7401C89.0803 34.7622 101.316 36.3057 101.316 43.8002C101.316 46.7766 99.8832 48.2095 97.5679 48.2095C94.0402 48.2095 92.2766 45.1234 92.0563 37.5178H89.1905V49.422C89.1905 49.422 92.7181 51.4057 97.8988 51.4057C104.293 51.4057 108.923 47.768 108.923 40.9348ZM37.16 47.768V4.01124H39.4749V1.14504H26.5774L20.184 29.031L13.3495 1.14504H0.121094V4.01083H2.87711V47.7676H0.121094V50.744H10.2625V47.7676H7.06581V17.0166L15.1131 50.744H19.7429L27.6796 16.7963V47.7676H24.7032V50.744H39.4749V47.7676L37.16 47.768ZM85.9938 47.768V21.6458C85.9938 16.2451 83.5691 13.7102 79.38 13.7102C74.1989 13.7102 72.1043 17.5679 72.1043 17.5679V13.7102L61.0807 14.9228V17.8987H63.6164V47.768H60.9709V50.7444H74.0883V47.768H72.3247V24.9527C72.3247 20.9849 73.4273 19.3316 75.4112 19.3316C76.8443 19.3316 77.3952 20.2133 77.3952 22.4178V47.768H75.4112V50.7444H87.7574V47.768H85.9938Z" fill="#797876"/>
</svg>
