<svg width="114" height="34" viewBox="0 0 114 34" fill="none" xmlns="http://www.w3.org/2000/svg">
<path d="M16.345 0.448159H0.387939V32.9132L16.6509 32.9134V32.909C22.3197 32.7472 26.8661 28.062 26.8661 22.3059C26.8661 16.627 22.4374 12.0041 16.8749 11.7254V11.7034C16.8988 11.7036 16.922 11.7069 16.9459 11.7069C20.0288 11.7069 22.5281 9.18651 22.5281 6.0776C22.5282 3.0431 20.1455 0.576179 17.165 0.459399L16.6509 0.4523V0.448159H16.3536L16.345 0.44804V0.448159ZM69.8783 20.5047C65.0633 19.7888 61.3677 15.6044 61.3677 10.5494C61.3677 4.99168 65.8351 0.486375 71.3459 0.486375V4.4512C78.4984 5.19199 84.0778 11.2869 84.0778 18.6961C84.0778 25.4143 77.7204 33.0161 69.8783 33.0159V20.5047ZM46.9062 11.9482V9.88695H57.5039V0.448159H30.6431V32.9132L46.9062 32.9134V32.8868H57.5039V23.4481H46.9062V21.387H57.5039V11.9482H46.9062ZM92.107 9.78425V32.8107H108.37V9.78425H114V0.345459H86.4767V9.78425H92.107Z" fill="black" fill-opacity="0.5"/>
</svg>
