<svg width="183" height="57" viewBox="0 0 183 57" fill="none" xmlns="http://www.w3.org/2000/svg">
<path d="M30.9099 12.9341L30.8656 13.188C30.0627 17.6742 28.4467 20.1188 25.8133 21.2328C25.1775 21.5021 24.4937 21.6414 23.8026 21.6424C20.1963 21.6424 18.4561 18.2617 17.8488 17.1444C17.2568 16.0846 16.709 14.8453 16.1272 13.535C14.6183 10.1204 12.2912 6.00152 9.85864 6.00152C9.23774 6.00152 8.37187 6.10649 7.53323 6.56358C5.83212 7.4913 5.83212 8.38008 5.8066 8.70851C5.44086 11.6305 8.02145 14.4103 11.5904 17.7064L12.9002 18.8948C14.9756 20.757 17.204 22.863 18.7112 25.416C19.623 26.9599 20.2507 28.5309 20.3511 30.0918C20.4651 31.9032 19.9207 33.7096 18.9511 35.4635C18.3251 36.6011 17.5902 37.5085 16.7396 38.5108C14.3121 41.2601 13.4276 43.6285 14.3853 45.7802C14.8905 46.9144 16.0354 47.8523 17.1071 48.0318C17.5455 48.1064 17.9892 48.1454 18.4339 48.1486C21.6065 48.1486 23.0916 46.0764 23.7958 40.2934C24.0884 37.8894 25.2928 35.3839 26.407 33.4201C27.9125 30.7453 30.0865 29.5382 32.8678 29.3283L33.4802 29.3046C34.4638 29.2903 35.4387 29.4905 36.3362 29.8911C37.2337 30.2918 38.0322 30.8833 38.6754 31.624C39.7012 32.7853 40.3765 34.1159 40.7508 35.9578C41.0502 37.4341 40.9821 39.1998 40.7916 40.6912L40.5875 42.1201C40.2268 44.6053 39.6859 48.7648 40.8971 50.2427C41.0298 50.4035 41.3819 50.8352 42.6067 50.9199L43.083 50.9334C44.8249 50.9334 45.5564 50.0819 45.9749 49.6401C47.1317 48.367 47.8461 45.831 47.4838 42.247C47.4208 41.6291 47.2575 40.72 47.084 39.7584C46.6809 37.5322 46.1552 34.7474 46.2216 32.1436C46.3151 28.47 47.3035 26.1676 49.6578 24.7761C50.4381 24.3306 51.3218 24.0954 52.2214 24.0938C53.0925 24.0778 53.9561 24.2568 54.7484 24.6175C55.5407 24.9782 56.2415 25.5115 56.7991 26.1778C57.7942 27.3205 58.4866 28.6274 58.8098 29.3046C59.3235 30.3779 59.5787 31.4479 59.9495 32.4822C60.6572 34.4545 61.2424 36.3252 62.5352 37.5272C63.3858 38.3229 64.2771 38.6309 65.0426 38.6309C65.7333 38.6309 66.5736 38.2348 67.1792 37.5339C68.2952 36.2812 68.7987 34.6983 68.6762 32.8209C68.5146 30.3238 67.4854 27.5728 65.6533 25.9645C64.7654 25.1925 63.1816 24.644 61.9109 23.9262C60.0652 22.885 58.5393 22.0132 57.158 20.3964C55.3548 18.2888 54.8734 15.5496 55.724 12.6598L55.8464 12.2484C56.646 9.53974 56.8025 8.35466 56.0165 7.60977C55.6763 7.27627 54.8394 7.2255 54.7458 7.2255C54.2865 7.2255 53.6826 7.45741 53.2012 8.01099C52.7419 8.54088 52.286 9.33829 51.8012 10.1848C51.1327 11.3698 50.3723 12.6818 49.3244 13.7737C47.9074 15.2415 46.3389 16.11 44.4116 16.154H44.2755C41.1386 16.154 39.3219 13.9955 38.5972 13.2202C38.0188 12.5989 37.2635 11.5493 36.6834 10.63C36.0983 9.69889 35.411 8.65939 34.7442 7.90942C32.7624 5.67984 31.6073 9.3027 30.9541 12.9882M26.0498 12.1858L26.0923 11.9369C26.5976 9.08939 27.1079 4.69965 30.3162 2.79511C31.4083 2.13994 32.5327 1.89786 33.6606 1.89786C37.4574 1.89786 39.9002 5.64262 41.4431 7.97886C42.3039 9.28241 43.0082 10.8907 44.1649 10.8907H44.1853C45.2111 10.8687 45.963 10.0239 47.3188 7.67415C47.9294 6.6024 48.6414 5.5911 49.4452 4.65397C50.9626 2.90688 52.4833 2.3245 54.5145 2.3245C56.1084 2.3245 58.1548 2.90852 59.3966 4.06309C60.9225 5.48515 61.4924 7.33722 61.4176 9.59558C61.3614 11.2309 60.8953 12.4228 60.482 13.8076L60.3629 14.2071C59.9257 15.6969 60.3289 16.9734 60.7422 17.4575C61.5111 18.3582 62.9537 19.1623 64.4455 19.9969C65.8915 20.8129 67.3885 21.1481 68.6983 22.2722C71.5902 24.7845 73.4104 28.6376 73.6604 32.5313C73.8714 35.8241 73.1501 38.531 71.0884 40.8266C69.4298 42.6889 67.3663 43.6708 65.1345 43.6708C62.9741 43.6708 60.9872 42.8751 59.1194 41.1314C56.9079 39.0491 56.088 36.5825 55.2664 34.297L54.2457 31.6121C53.6673 30.3999 53.2556 29.2962 52.3677 29.2962C51.4797 29.2962 51.4201 31.2549 51.3929 32.3214C51.3419 34.3868 51.8897 36.8618 52.2486 38.851L52.7079 41.729C53.5874 50.3866 49.469 56.1189 43.3059 56.1189C43.0448 56.1188 42.7839 56.1109 42.5233 56.0952C39.5804 55.9259 37.8657 54.6003 36.9709 53.5083C34.2781 50.2241 35.0572 45.0404 35.6049 41.2635L35.775 39.9226C36.0217 37.9961 35.5811 35.9646 34.7544 35.0267C34.6108 34.8512 34.4273 34.7124 34.219 34.6217C34.0107 34.531 33.7837 34.4911 33.5568 34.5053C33.4876 34.5051 33.4183 34.5074 33.3493 34.5121C31.3079 34.6814 30.5186 36.7856 29.2666 41.5208C28.5742 44.1753 27.9857 47.0448 26.5788 49.3082C24.7365 52.2505 21.9348 53.6184 18.4918 53.6184C17.7507 53.614 17.0112 53.5506 16.2803 53.4288C14.8276 53.1918 13.3884 52.5146 12.1126 51.4701C10.9303 50.5017 9.96071 49.2591 9.38573 47.9657C8.36507 45.6752 8.36507 42.7549 9.3279 40.2934C10.09 38.3804 10.9712 37.3646 12.0888 35.8546C12.7965 34.8964 13.7219 33.801 14.1812 32.9698C15.0879 31.3243 15.2954 29.8887 14.2747 28.1585C13.1826 26.2963 11.1532 24.4933 9.36362 22.8901L8.00273 21.6374C4.04765 17.9705 -0.106456 13.8279 0.585896 8.3513C0.80704 6.57373 1.6576 3.81766 5.0343 1.97406C6.66736 1.08358 8.2664 0.887207 9.7923 0.887207C12.5226 0.887207 14.9297 2.02145 16.9404 4.78091C18.4203 6.79888 19.555 9.27054 20.4889 11.4781C21.894 14.7962 24.3674 22.279 26.1025 12.2129" fill="#797876"/>
<path d="M150.169 33.007C150.007 32.6583 150.169 32.4179 150.574 32.4179H151.946C152.162 32.4179 152.321 32.5533 152.406 32.7141L156.199 40.9113H156.226L159.804 32.7141C159.847 32.629 159.912 32.5568 159.993 32.5048C160.073 32.4528 160.166 32.4228 160.261 32.4179H161.473C161.876 32.4179 162.065 32.6854 161.876 33.0341L155.279 46.8907C155.199 47.0532 155.01 47.2293 154.82 47.2293H153.824C153.42 47.2293 153.205 46.9347 153.394 46.5589L155.175 43.1223L150.17 33.0223L150.169 33.007ZM131.504 41.4751C132.865 41.4751 134.005 40.8317 134.464 40.163V38.1755C134.124 37.8454 133.158 37.3527 131.974 37.3527C130.466 37.3527 129.432 37.9893 129.432 39.3843C129.432 40.4559 130.347 41.4751 131.504 41.4751ZM132.185 35.8206C133.341 35.8206 134.473 36.5486 134.473 36.5486C134.5 34.5679 133.69 33.6707 132.159 33.6707C130.679 33.6707 129.982 34.0736 129.497 34.2632C129.225 34.3698 129.065 34.2344 128.987 33.9923L128.77 33.3219C128.663 32.9833 128.825 32.8395 129.068 32.7328C129.23 32.6532 130.225 32.0353 132.241 32.0353C134.986 32.0353 136.225 33.4286 136.225 36.5639V42.5094C136.22 42.6428 136.165 42.7695 136.071 42.8638C135.976 42.9582 135.848 43.013 135.714 43.0173H135.029C134.733 43.0173 134.655 42.8565 134.57 42.6161L134.547 41.8932C133.983 42.4552 132.88 43.0985 131.21 43.0985C129.327 43.0985 127.712 41.5445 127.712 39.4012C127.712 37.3663 129.434 35.8376 132.203 35.8376M115.941 36.6841H110.016C109.851 36.6841 109.846 36.5402 109.846 36.5012C110.111 34.9522 111.451 33.7925 113.163 33.7925C114.694 33.7925 115.939 35.0487 116.116 36.5012C116.118 36.5689 116.099 36.7044 115.959 36.7044M113.163 32.1843C109.931 32.1843 107.957 34.7491 107.957 37.7371C107.957 40.7776 109.948 43.2899 113.163 43.2899C114.995 43.2899 116.429 42.5754 117.065 42.0743C117.463 41.7831 117.358 41.624 117.172 41.387L116.72 40.7775C116.509 40.4864 116.349 40.6184 115.976 40.8283C115.364 41.2008 114.445 41.6207 113.348 41.6207C111.542 41.6207 110.031 40.0902 109.815 38.4041C109.822 38.2432 109.948 38.184 109.948 38.184H117.438C117.676 38.184 117.89 38.0147 117.917 37.7337C117.948 37.4978 117.965 37.2604 117.968 37.0227C117.968 34.2463 115.949 32.1843 113.163 32.1843ZM93.964 41.067C93.8314 40.8554 93.7259 40.6946 93.3278 40.9079C93.3278 40.9079 92.7273 41.5614 91.6845 41.5614C90.6418 41.5614 90.4904 40.3086 90.4938 40.2206V34.3851C90.504 34.2666 90.5618 34.0566 90.8476 34.0346H93.5745C93.8671 34.0346 94.0797 33.7976 94.0797 33.5335V32.9512C94.0797 32.66 93.8671 32.45 93.5745 32.45H90.8952C90.845 32.456 90.7941 32.4514 90.7458 32.4363C90.6976 32.4212 90.6531 32.3962 90.6153 32.3627C90.5775 32.3293 90.5473 32.2882 90.5266 32.2423C90.506 32.1964 90.4954 32.1466 90.4955 32.0962V29.2928C90.4955 29.0287 90.2828 28.7917 90.0192 28.7917H89.1992C88.9339 28.7917 88.6685 29.0287 88.6685 29.2928V32.0522C88.6685 32.0522 88.6583 32.3823 88.3283 32.3908H87.2957C87.0031 32.3908 86.7905 32.6024 86.7905 32.8919V33.4743C86.7905 33.7384 87.0031 33.9754 87.2957 33.9754H88.3504C88.5885 34.0092 88.6396 34.2158 88.6498 34.314V40.3374C88.6498 41.9761 89.5939 43.2458 91.7169 43.2458C92.9655 43.2458 93.7582 42.5687 94.1461 42.3452C94.4387 42.1759 94.5203 42.0015 94.3162 41.668L93.9181 40.9909L93.964 41.067ZM101.619 32.1843C100.054 32.1843 99.0963 32.9258 98.6931 33.3287C98.6914 33.3287 98.4652 33.5487 98.4652 33.2152V28.1873C98.4652 27.9232 98.227 27.6862 97.9599 27.6862H97.1349C96.8712 27.6862 96.6314 27.9232 96.6314 28.1873V42.5196C96.6314 42.7836 96.8695 43.0207 97.1349 43.0207H97.9599C98.2253 43.0207 98.4652 42.7836 98.4652 42.5196V36.7196C98.4652 34.7389 99.9417 34.1667 100.901 34.0008C101.095 33.9697 101.291 33.9539 101.488 33.9534C102.975 33.9534 104.281 34.9319 104.281 36.9414V42.5196C104.281 42.7836 104.519 43.0207 104.785 43.0207H105.635C105.901 43.0207 106.139 42.7836 106.139 42.5196V36.9414C106.139 33.8484 104.268 32.2012 101.622 32.2012M143.696 41.5123C142.216 41.5123 141.087 40.5744 141.087 40.5744V35.0555C141.087 35.0555 142.083 33.7417 143.83 33.7417C145.982 33.7417 147.222 35.5921 147.222 37.6812C147.222 39.8227 145.768 41.5123 143.696 41.5123ZM144.038 32.0556C142.968 32.0466 141.925 32.3954 141.078 33.046V32.9613C141.074 32.828 141.019 32.7012 140.924 32.6069C140.829 32.5126 140.702 32.4577 140.568 32.4535H139.717C139.448 32.4535 139.207 32.6955 139.207 32.9613V46.7383C139.211 46.8717 139.266 46.9984 139.361 47.0928C139.456 47.1871 139.583 47.242 139.717 47.2462H140.568C140.702 47.242 140.829 47.1871 140.924 47.0928C141.019 46.9984 141.074 46.8717 141.078 46.7383V42.4214C141.078 42.4214 142.184 43.3051 143.956 43.3051C146.916 43.3051 149.123 40.8402 149.123 37.7066C149.123 34.6255 146.969 32.0522 144.019 32.0522M125.004 32.0522C123.281 32.0522 122.282 32.8953 121.935 33.2813V32.9427C121.931 32.8094 121.876 32.6826 121.781 32.5883C121.686 32.494 121.559 32.439 121.425 32.4348H120.575C120.441 32.439 120.313 32.494 120.218 32.5883C120.124 32.6826 120.068 32.8094 120.064 32.9427V42.5077C120.068 42.6411 120.124 42.7678 120.218 42.8621C120.313 42.9565 120.441 43.0113 120.575 43.0156H121.425C121.694 43.0156 121.935 42.7735 121.935 42.5077V35.3551C121.935 35.3551 122.82 33.8552 124.868 33.8552C125.229 33.8583 125.585 33.9313 125.918 34.0702C126.186 34.1768 126.428 34.1768 126.564 33.8281L126.904 32.9173C127.177 32.1673 125.828 32.0336 125.021 32.0336M160.345 17.5726H154.422C154.257 17.5726 154.251 17.4287 154.251 17.3898C154.517 15.8408 155.856 14.6811 157.569 14.6811C159.1 14.6811 160.345 15.9373 160.522 17.3898C160.523 17.4575 160.505 17.5929 160.365 17.5929M157.57 13.0729C154.338 13.0729 152.365 15.6376 152.365 18.6256C152.365 21.6661 154.355 24.1784 157.57 24.1784C159.402 24.1784 160.836 23.464 161.473 22.9629C161.871 22.6717 161.765 22.5126 161.58 22.2756L161.129 21.6661C160.916 21.3749 160.755 21.507 160.386 21.7169C159.773 22.0894 158.855 22.5092 157.757 22.5092C155.951 22.5092 154.44 20.9788 154.224 19.2926C154.233 19.1301 154.36 19.0726 154.36 19.0726H161.85C162.088 19.0726 162.303 18.9033 162.327 18.6222C162.357 18.3852 162.375 18.1468 162.379 17.9078C162.379 15.1314 160.36 13.0695 157.574 13.0695M182.112 21.9522C181.98 21.7406 181.874 21.5798 181.476 21.7931C181.476 21.7931 180.876 22.4466 179.833 22.4466C178.79 22.4466 178.639 21.1938 178.642 21.0922V15.2567C178.652 15.1382 178.71 14.9283 178.996 14.9063H181.723C182.015 14.9063 182.228 14.6693 182.228 14.4052V13.8228C182.228 13.5316 182.014 13.3217 181.723 13.3217H179.043C178.993 13.328 178.942 13.3235 178.893 13.3086C178.845 13.2936 178.8 13.2686 178.762 13.2351C178.724 13.2016 178.694 13.1605 178.673 13.1144C178.652 13.0683 178.642 13.0184 178.642 12.9679V10.2033C178.642 9.93925 178.429 9.70225 178.166 9.70225H177.346C177.079 9.70225 176.813 9.93925 176.813 10.2033V12.9628C176.813 12.9628 176.803 13.2929 176.473 13.3014H175.44C175.148 13.3014 174.937 13.513 174.937 13.8025V14.3849C174.937 14.649 175.15 14.886 175.44 14.886H176.495C176.733 14.9198 176.784 15.123 176.795 15.2246V21.2514C176.795 22.8901 177.739 24.1598 179.862 24.1598C181.11 24.1598 181.903 23.4826 182.291 23.2592C182.583 23.0899 182.665 22.9155 182.461 22.582L182.063 21.9048L182.112 21.9522ZM169.291 13.0695C167.726 13.0695 166.77 13.811 166.365 14.2156C166.365 14.2156 166.137 14.4357 166.137 14.1022V13.8313C166.137 13.5672 165.899 13.3302 165.632 13.3302H164.809C164.543 13.3302 164.303 13.5672 164.303 13.8313V23.4065C164.303 23.6706 164.541 23.9076 164.809 23.9076H165.632C165.897 23.9076 166.137 23.6706 166.137 23.4065V17.6065C166.137 15.6258 167.614 15.0671 168.573 14.8877C168.767 14.8568 168.963 14.8409 169.16 14.8403C170.647 14.8403 171.953 15.8171 171.953 17.8283V23.4065C171.953 23.6706 172.191 23.9076 172.457 23.9076H173.307C173.573 23.9076 173.812 23.6706 173.812 23.4065V17.8283C173.812 14.7353 171.941 13.0881 169.294 13.0881M85.2595 22.3992C86.6203 22.3992 87.7601 21.7559 88.2194 21.0872V19.0997C87.8792 18.7712 86.9129 18.2769 85.729 18.2769C84.2218 18.2769 83.1858 18.9151 83.1858 20.3084C83.1858 21.38 84.1044 22.3992 85.2612 22.3992M85.9416 16.7448C87.0984 16.7448 88.2296 17.4728 88.2296 17.4728C88.2568 15.492 87.4471 14.5948 85.9127 14.5948C84.4327 14.5948 83.7353 14.9977 83.2521 15.1873C82.98 15.294 82.8201 15.1585 82.7418 14.9164L82.5258 14.246C82.4186 13.9075 82.5802 13.7636 82.8218 13.6569C82.9817 13.5774 83.9785 12.9594 85.9943 12.9594C88.7382 12.9594 89.9783 14.3527 89.9783 17.488V23.3675C89.9741 23.5009 89.9189 23.6276 89.8241 23.7219C89.7293 23.8163 89.602 23.8711 89.468 23.8754H88.7637C88.4677 23.8754 88.3895 23.7146 88.3044 23.4725L88.2823 22.7496C87.7176 23.3117 86.6152 23.9549 84.9447 23.9549C83.0616 23.9549 81.4473 22.4009 81.4473 20.2576C81.4473 18.2227 83.1688 16.694 85.9382 16.694M107.883 22.3484C109.243 22.3484 110.383 21.705 110.842 21.0363V19.0489C110.502 18.7205 109.536 18.2261 108.352 18.2261C106.845 18.2261 105.811 18.8643 105.811 20.2576C105.811 21.3292 106.726 22.3484 107.883 22.3484ZM108.583 16.694C109.74 16.694 110.87 17.422 110.87 17.422C110.897 15.4413 110.087 14.544 108.556 14.544C107.076 14.544 106.379 14.9469 105.894 15.1365C105.622 15.2432 105.464 15.1077 105.384 14.8657L105.169 14.1953C105.06 13.8567 105.224 13.7128 105.465 13.6061C105.627 13.5266 106.622 12.9086 108.64 12.9086C111.383 12.9086 112.624 14.3019 112.624 17.4372V23.3675C112.619 23.5009 112.564 23.6276 112.469 23.7219C112.375 23.8163 112.247 23.8711 112.113 23.8754H111.407C111.111 23.8754 111.033 23.7146 110.948 23.4725L110.926 22.7496C110.361 23.3117 109.259 23.9549 107.588 23.9549C105.705 23.9549 104.091 22.4009 104.091 20.2576C104.091 18.2227 105.812 16.694 108.583 16.694ZM130.64 21.9201C130.507 21.7084 130.402 21.5476 130.004 21.7609C130.004 21.7609 129.403 22.4144 128.359 22.4144C127.314 22.4144 127.165 21.1616 127.168 21.0601V15.2415C127.177 15.123 127.236 14.9131 127.52 14.8911H130.247C130.54 14.8911 130.752 14.654 130.752 14.3899V13.8076C130.752 13.5164 130.54 13.3065 130.247 13.3065H127.544C127.494 13.3125 127.443 13.3078 127.395 13.2927C127.346 13.2777 127.302 13.2526 127.264 13.2191C127.226 13.1857 127.196 13.1446 127.175 13.0987C127.155 13.0528 127.144 13.003 127.144 12.9526V10.1881C127.144 9.924 126.932 9.68701 126.668 9.68701H125.848C125.581 9.68701 125.316 9.924 125.316 10.1881V12.9476C125.316 12.9476 125.305 13.2777 124.975 13.2862H123.943C123.65 13.2862 123.437 13.4978 123.437 13.7873V14.3696C123.437 14.6337 123.65 14.8707 123.943 14.8707H124.997C125.236 14.9046 125.287 15.1111 125.297 15.2093V21.2361C125.297 22.8749 126.241 24.1446 128.364 24.1446C129.613 24.1446 130.405 23.4674 130.793 23.2439C131.086 23.0746 131.167 22.9003 130.963 22.5668L130.565 21.8896L130.64 21.9201ZM97.1417 22.3501C95.6617 22.3501 94.5305 21.4122 94.5305 21.4122V15.8932C94.5305 15.8932 95.5274 14.5795 97.2744 14.5795C99.4263 14.5795 100.665 16.4299 100.665 18.519C100.665 20.6605 99.2137 22.3501 97.1417 22.3501ZM97.4802 12.8934C96.41 12.8844 95.3677 13.2332 94.5203 13.8838V13.7991C94.516 13.6657 94.4609 13.539 94.3661 13.4447C94.2713 13.3503 94.144 13.2955 94.01 13.2912H93.1594C92.8906 13.2912 92.6491 13.5333 92.6491 13.7991V27.5761C92.6533 27.7095 92.7085 27.8362 92.8033 27.9306C92.8981 28.0249 93.0254 28.0798 93.1594 28.084H94.01C94.144 28.0798 94.2713 28.0249 94.3661 27.9306C94.4609 27.8362 94.516 27.7095 94.5203 27.5761V23.2592C94.5203 23.2592 95.626 24.1446 97.3986 24.1446C100.359 24.1446 102.565 21.6797 102.565 18.5444C102.565 15.4633 100.413 12.89 97.4615 12.89M120.199 12.89C118.475 12.89 117.477 13.7331 117.131 14.1191V13.7805C117.127 13.6471 117.072 13.5204 116.977 13.4261C116.882 13.3317 116.755 13.2768 116.621 13.2726H115.771C115.637 13.2768 115.509 13.3317 115.414 13.4261C115.32 13.5204 115.264 13.6471 115.26 13.7805V23.3675C115.264 23.5009 115.32 23.6276 115.414 23.7219C115.509 23.8163 115.637 23.8711 115.771 23.8754H116.621C116.755 23.8711 116.882 23.8163 116.977 23.7219C117.072 23.6276 117.127 23.5009 117.131 23.3675V16.2149C117.131 16.2149 118.019 14.715 120.064 14.715C120.425 14.718 120.781 14.7904 121.114 14.9283C121.383 15.0367 121.624 15.0366 121.76 14.6879L122.1 13.7771C122.373 13.0254 121.024 12.8917 120.217 12.8917M145.962 13.0356C144.329 13.0356 142.985 13.8753 142.197 15.1771C141.442 13.7754 140.028 13.0356 138.281 13.0356C136.716 13.0356 135.759 13.7771 135.355 14.1817C135.355 14.1817 135.128 14.4018 135.128 14.0683V13.7974C135.128 13.5333 134.889 13.2963 134.622 13.2963H133.801C133.534 13.2963 133.295 13.5333 133.295 13.7974V23.3726C133.295 23.6367 133.534 23.8737 133.801 23.8737H134.622C134.889 23.8737 135.128 23.6367 135.128 23.3726V17.5726C135.128 15.5919 136.607 15.0333 137.565 14.8538C137.759 14.8229 137.954 14.8071 138.15 14.8064C139.637 14.8064 140.94 15.7832 140.94 17.7944V23.3726C140.94 23.6367 141.178 23.8737 141.445 23.8737H142.301C142.566 23.8737 142.806 23.6367 142.806 23.3726V17.5726C142.806 15.5919 144.283 15.0333 145.242 14.8538C145.436 14.8229 145.633 14.807 145.829 14.8064C147.316 14.8064 148.622 15.7832 148.622 17.7944V23.3726C148.622 23.6367 148.861 23.8737 149.126 23.8737H149.977C150.242 23.8737 150.48 23.6367 150.48 23.3726V17.7944C150.48 14.7015 148.609 13.0542 145.964 13.0542" fill="#797876"/>
</svg>
