<svg width="132" height="46" viewBox="0 0 132 46" fill="none" xmlns="http://www.w3.org/2000/svg">
<path d="M0.837891 10.9081H6.58235V35.0129H0.837891V44.5606H31.5737V35.0129H25.77V10.9081H31.5737V0.594238H0.837891V10.9081Z" fill="#797876"/>
<path d="M78.8917 35.0132V22.342C78.8917 14.2677 72.9695 11.3209 65.6261 11.3209C60.4146 11.3209 56.4468 12.7354 53.012 16.6841C52.7751 16.9788 52.479 17.3324 52.1236 17.6271V10.9673H33.1729V20.5739H37.496V35.0132H33.1729V44.6198H57.2167V35.0132H52.6566V26.7032C52.6566 23.1671 55.3216 20.5739 58.8749 20.5739C61.6583 20.5739 63.8495 21.9294 63.8495 24.9351V34.9543H59.4079V44.5609H82.9187V35.1311C82.9187 35.0721 82.8595 35.0132 82.8595 34.9543H78.8917V35.0132Z" fill="#797876"/>
<path d="M121.176 32.1841H108.68H108.265C108.265 35.7202 105.66 37.3705 102.758 37.3705C97.191 37.3705 96.7172 32.7145 96.7172 28.2943V28.1764C96.7172 23.7562 97.1317 19.1003 102.758 19.1003C107.14 19.1003 107.91 22.8722 108.028 26.4673L120.998 25.0528C119.636 11.9101 106.607 11.085 103.35 11.085C102.876 11.085 102.639 11.085 102.639 11.085C91.9203 11.085 81.3789 16.3303 81.3789 28.2354C81.3789 30.7696 81.8527 33.0092 82.741 34.9541H82.8002V35.1309C85.9982 42.2032 94.2891 45.3858 102.639 45.3858C109.45 45.3858 118.984 43.7356 121.116 33.3039L121.176 32.1841Z" fill="#797876"/>
<path d="M125.616 44.7373C128.625 44.7373 131.065 42.3097 131.065 39.3152C131.065 36.3206 128.625 33.8931 125.616 33.8931C122.607 33.8931 120.168 36.3206 120.168 39.3152C120.168 42.3097 122.607 44.7373 125.616 44.7373Z" fill="#797876"/>
</svg>
